<svg width="138" height="138" viewBox="0 0 138 138" fill="none" xmlns="http://www.w3.org/2000/svg">
<ellipse cx="105" cy="91.5654" rx="24" ry="23.5" fill="#0CD25F"/>
<path d="M100.764 62.8999L23.6897 62.9032C15.9566 62.9138 10.1117 59.1152 10.0364 50.7247L10.0334 41.7803C10.028 36.4957 9.41097 31.5903 13.5597 27.4809C17.5431 23.5355 22.4811 24.008 27.6947 24.0063L37.4805 24.0086L108.398 24.0073C111.377 24.0073 114.662 23.7887 117.598 24.2219C125.172 25.34 127.973 31.2433 127.995 37.9643L127.998 47.1661C127.992 53.9774 127.338 60.3172 119.062 62.5049C116.586 63.1594 113.298 62.9023 110.706 62.9029L100.764 62.8999ZM43.584 36.7584L36.6698 36.7551C34.7889 36.7531 32.6458 36.5651 30.8166 37.0211C22.9922 38.9714 24.1917 50.3967 32.3491 50.7072C32.4069 50.7428 53.8304 50.7635 55.7224 50.7171C65.874 50.4688 65.4444 38.6198 58.1902 36.9717C56.9029 36.6794 55.5671 36.7554 54.2553 36.7551L49.7215 36.7554C47.6939 36.7564 45.6056 36.6458 43.584 36.7584ZM112.501 52.9459C118.165 47.6441 118.376 38.8141 112.972 33.2551C107.567 27.6962 98.6072 27.5277 92.9914 32.8792C87.3753 38.231 87.2447 47.0627 92.6998 52.5732C98.0858 58.0143 106.908 58.1805 112.501 52.9459Z" fill="#C2C2C2"/>
<path d="M92.2615 53.548C86.4579 47.5714 86.5968 37.9929 92.5717 32.1884C98.5463 26.3844 108.078 26.5672 113.828 32.5962C119.578 38.6252 119.353 48.202 113.327 53.9521C107.087 47.7207 98.6646 47.2372 92.2615 53.548ZM101.967 34.6718C98.2634 35.1749 95.6766 38.6127 96.2047 42.3301C96.7328 46.0475 100.173 48.6208 103.869 48.0627C107.526 47.5107 110.055 44.0976 109.533 40.4187C109.01 36.7403 105.632 34.1741 101.967 34.6718Z" fill="#979797"/>
<path d="M103.038 47.8734C99.1954 48.451 95.6183 45.788 95.0692 41.9411C94.5201 38.0942 97.2097 34.5367 101.06 34.016C104.871 33.5009 108.383 36.1566 108.927 39.9632C109.47 43.7701 106.841 47.3022 103.038 47.8734Z" fill="#FEFEFE"/>
<rect opacity="0.4" x="27.998" y="38.9521" width="32" height="10" rx="5" fill="#B2B2B2"/>
<g filter="url(#filter0_d_11795_3550)">
<circle cx="34.5" cy="43.5654" r="6.5" fill="white"/>
</g>
<path d="M91.998 53.4324C98.6851 47.1593 107.481 47.6399 113.998 53.8342C107.784 59.4777 97.9822 59.2985 91.998 53.4324Z" fill="#FEFEFE"/>
<path d="M91.3474 110.922C85.8567 110.989 80.356 110.924 74.8639 110.924L28.2448 110.922C21.7493 110.923 16.3717 111.524 12.1029 105.167C9.44957 101.216 10.059 96.5323 10.0572 92.0304L10.0522 86.1534C10.0473 78.7589 12.4312 71.8369 21.1993 71.0971C23.2595 70.923 25.3807 71.0275 27.4499 71.0289L87.6977 71.0319C88.8446 71.0305 92.1476 70.8538 92.998 71.0309L92.8783 71.1374C91.5553 72.3015 90.0091 73.172 88.6958 74.3597C79.4779 82.699 79.2456 96.4794 86.406 106.242C87.2791 107.344 90.1306 110.111 91.3474 110.922ZM41.7882 83.3799L33.5818 83.3766C31.5096 83.3769 28.9618 83.14 26.9794 83.6744C20.0231 85.5504 19.9532 95.9546 26.9798 97.745C28.8231 98.2146 31.0045 97.9816 32.9077 97.979L41.4356 97.971C44.1184 98.2488 55.3347 98.1111 57.3197 97.5423C64.0602 95.6112 63.7052 85.3347 56.7677 83.5926C55.142 83.1846 52.5571 83.3776 50.8229 83.3773L41.7882 83.3799Z" fill="#212121" fill-opacity="0.8"/>
<path d="M103.012 93.753C97.9723 92.7317 94.5285 88.0538 95.0502 82.9376C95.5722 77.8213 99.8892 73.935 105.032 73.9522C110.174 73.9695 114.465 77.8848 114.953 83.0046C115.44 88.1244 111.964 92.7789 106.917 93.766C105.628 94.0186 104.301 94.014 103.012 93.753Z" fill="#EAEAEA"/>
<rect opacity="0.4" x="25.998" y="85.9521" width="25" height="11" rx="5.5" fill="#00C300"/>
<g opacity="0.5" filter="url(#filter1_d_11795_3550)">
<circle cx="43.998" cy="90.9521" r="14" fill="#00C300"/>
</g>
<g filter="url(#filter2_d_11795_3550)">
<circle cx="44.498" cy="91.4521" r="7.5" fill="#09B953"/>
</g>
<path d="M103.073 93.9521C104.38 94.2204 105.727 94.2251 107.036 93.9655C114.666 95.5277 119.473 99.6651 123.5 106.565C115 116.565 103 116.565 95.5 113.065C94 112.565 92.708 111.881 91.5 111.065C90.292 110.25 87.3668 107.673 86.5 106.565C89.3583 99.4266 95.9261 95.5946 103.073 93.9521Z" fill="#EAEAEA"/>
<path d="M101.998 107.152L103.998 99.1021H105.998L107.998 107.152L104.998 109.952L101.998 107.152ZM103.998 95.9521H105.998L106.998 96.6521L105.998 99.1021H103.998L102.998 96.6521L103.998 95.9521Z" fill="#4C4C4C"/>
<path d="M103.998 99.1021L101.998 107.152L104.998 109.952L107.998 107.152L105.998 99.1021M103.998 99.1021H105.998M103.998 99.1021L102.998 96.6521L103.998 95.9521H105.998L106.998 96.6521L105.998 99.1021" stroke="#4C4C4C" stroke-linecap="round" stroke-linejoin="round"/>
<path fill-rule="evenodd" clip-rule="evenodd" d="M59.88 72.7746C59.8292 72.652 59.7317 72.5546 59.609 72.5039L57.5161 71.6392C57.104 71.4689 57.104 70.8852 57.5161 70.7149L59.609 69.8502C59.7317 69.7995 59.8292 69.7021 59.88 69.5795L60.7471 67.4879C60.9176 67.0765 61.5003 67.0765 61.6709 67.4879L62.538 69.5795C62.5888 69.7021 62.6863 69.7995 62.8089 69.8502L64.9019 70.7149C65.314 70.8852 65.314 71.4689 64.9019 71.6392L62.8089 72.5039C62.6863 72.5546 62.5888 72.652 62.538 72.7746L61.6709 74.8662C61.5003 75.2776 60.9176 75.2776 60.7471 74.8662L59.88 72.7746Z" fill="#F8D008"/>
<path fill-rule="evenodd" clip-rule="evenodd" d="M68.4536 83.5973C68.4028 83.4747 68.3053 83.3774 68.1826 83.3267L67.117 82.8864C66.7049 82.7161 66.7049 82.1324 67.117 81.9622L68.1826 81.5219C68.3053 81.4712 68.4028 81.3738 68.4536 81.2512L68.8955 80.1852C69.0661 79.7738 69.6488 79.7738 69.8193 80.1852L70.2613 81.2512C70.3121 81.3738 70.4095 81.4712 70.5322 81.5219L71.5979 81.9622C72.01 82.1324 72.01 82.7161 71.5979 82.8864L70.5322 83.3267C70.4095 83.3774 70.3121 83.4747 70.2613 83.5973L69.8193 84.6634C69.6488 85.0747 69.0661 85.0747 68.8955 84.6634L68.4536 83.5973Z" fill="#F8D008"/>
<path fill-rule="evenodd" clip-rule="evenodd" d="M30.842 108.476C30.7912 108.354 30.6937 108.256 30.571 108.206L29.2263 107.65C28.8142 107.48 28.8142 106.896 29.2263 106.726L30.571 106.17C30.6937 106.12 30.7912 106.022 30.842 105.9L31.3994 104.555C31.57 104.144 32.1527 104.144 32.3232 104.555L32.8807 105.9C32.9315 106.022 33.029 106.12 33.1516 106.17L34.4964 106.726C34.9085 106.896 34.9085 107.48 34.4964 107.65L33.1516 108.206C33.029 108.256 32.9315 108.354 32.8807 108.476L32.3232 109.821C32.1527 110.232 31.57 110.232 31.3994 109.821L30.842 108.476Z" fill="#F8D008"/>
<defs>
<filter id="filter0_d_11795_3550" x="26.5503" y="36.3406" width="15.8995" height="15.8995" filterUnits="userSpaceOnUse" color-interpolation-filters="sRGB">
<feFlood flood-opacity="0" result="BackgroundImageFix"/>
<feColorMatrix in="SourceAlpha" type="matrix" values="0 0 0 0 0 0 0 0 0 0 0 0 0 0 0 0 0 0 127 0" result="hardAlpha"/>
<feOffset dy="0.724872"/>
<feGaussianBlur stdDeviation="0.724872"/>
<feComposite in2="hardAlpha" operator="out"/>
<feColorMatrix type="matrix" values="0 0 0 0 0 0 0 0 0 0 0 0 0 0 0 0 0 0 0.1 0"/>
<feBlend mode="normal" in2="BackgroundImageFix" result="effect1_dropShadow_11795_3550"/>
<feBlend mode="normal" in="SourceGraphic" in2="effect1_dropShadow_11795_3550" result="shape"/>
</filter>
<filter id="filter1_d_11795_3550" x="28.5483" y="76.2273" width="30.8995" height="30.8995" filterUnits="userSpaceOnUse" color-interpolation-filters="sRGB">
<feFlood flood-opacity="0" result="BackgroundImageFix"/>
<feColorMatrix in="SourceAlpha" type="matrix" values="0 0 0 0 0 0 0 0 0 0 0 0 0 0 0 0 0 0 127 0" result="hardAlpha"/>
<feOffset dy="0.724872"/>
<feGaussianBlur stdDeviation="0.724872"/>
<feComposite in2="hardAlpha" operator="out"/>
<feColorMatrix type="matrix" values="0 0 0 0 0 0 0 0 0 0 0 0 0 0 0 0 0 0 0.1 0"/>
<feBlend mode="normal" in2="BackgroundImageFix" result="effect1_dropShadow_11795_3550"/>
<feBlend mode="normal" in="SourceGraphic" in2="effect1_dropShadow_11795_3550" result="shape"/>
</filter>
<filter id="filter2_d_11795_3550" x="35.5483" y="83.2273" width="17.8995" height="17.8995" filterUnits="userSpaceOnUse" color-interpolation-filters="sRGB">
<feFlood flood-opacity="0" result="BackgroundImageFix"/>
<feColorMatrix in="SourceAlpha" type="matrix" values="0 0 0 0 0 0 0 0 0 0 0 0 0 0 0 0 0 0 127 0" result="hardAlpha"/>
<feOffset dy="0.724872"/>
<feGaussianBlur stdDeviation="0.724872"/>
<feComposite in2="hardAlpha" operator="out"/>
<feColorMatrix type="matrix" values="0 0 0 0 0 0 0 0 0 0 0 0 0 0 0 0 0 0 0.1 0"/>
<feBlend mode="normal" in2="BackgroundImageFix" result="effect1_dropShadow_11795_3550"/>
<feBlend mode="normal" in="SourceGraphic" in2="effect1_dropShadow_11795_3550" result="shape"/>
</filter>
</defs>
</svg>
