<svg width="138" height="138" viewBox="0 0 138 138" fill="none" xmlns="http://www.w3.org/2000/svg">
<rect x="33" y="13.5" width="62" height="111" rx="12.8999" fill="#2D2D2D" stroke="#616161" stroke-width="4.29997"/>
<rect x="54" y="19" width="20" height="5" rx="2.5" fill="#616161"/>
<ellipse cx="64.2197" cy="69.129" rx="37.7803" ry="36.36" fill="#09B953"/>
<circle cx="65.6393" cy="67.9923" r="36.36" fill="#7AF2AC"/>
<circle cx="65.6396" cy="67.9926" r="26.1337" fill="#0CD25F"/>
<circle cx="65.6399" cy="67.9924" r="15.9075" fill="#7AF2AC"/>
<circle cx="65.6395" cy="67.9926" r="7.38562" fill="#0CD25F"/>
<rect x="103.281" y="55.4517" width="40.4242" height="3.51515" rx="1.75757" transform="rotate(158.59 103.281 55.4517)" fill="white"/>
<path d="M109.361 58.7317L105.601 60.2063C104.243 60.7386 102.72 60.6517 101.432 59.9683L98.3101 58.312C96.5652 57.3864 95.7572 55.3257 96.4079 53.4607L97.5722 50.1238C98.0526 48.7469 99.1102 47.6483 100.468 47.116L104.229 45.6414L101.176 54.3896L109.361 58.7317Z" fill="#D9D9D9"/>
<path d="M109.361 58.7317L105.601 60.2063C104.243 60.7386 102.72 60.6517 101.432 59.9683L98.3101 58.312C96.5652 57.3864 95.7572 55.3257 96.4079 53.4607L97.5722 50.1238C98.0526 48.7469 99.1102 47.6483 100.468 47.116L104.229 45.6414L101.176 54.3896L109.361 58.7317Z" fill="#F9A109"/>
<path d="M115.261 56.4186L109.361 58.7317L101.176 54.3896L104.229 45.6414L110.128 43.3283L107.076 52.0765L115.261 56.4186Z" fill="#F58402"/>
<path d="M115.562 51.1359C117.761 52.3021 117.578 55.5102 115.261 56.4186L107.076 52.0765L110.128 43.3283C112.445 42.4199 114.76 44.6484 113.94 46.9981L112.975 49.7634L115.562 51.1359Z" fill="#F9A109"/>
<path fill-rule="evenodd" clip-rule="evenodd" d="M12.8626 40.5727L7.81611 38.4876L12.8626 36.4025L14.9512 31.3644L17.0398 36.4025L22.0862 38.4876L17.0398 40.5727L14.9512 45.6107L12.8626 40.5727Z" fill="#00C34D"/>
<path fill-rule="evenodd" clip-rule="evenodd" d="M23.0224 49.4367L19.4994 47.9811L23.0224 46.5254L24.4805 43.0083L25.9385 46.5254L29.4615 47.9811L25.9385 49.4367L24.4805 52.9538L23.0224 49.4367Z" fill="#00C34D"/>
</svg>
