<svg width="80" height="80" viewBox="0 0 80 80" fill="none" xmlns="http://www.w3.org/2000/svg">
<path d="M0 20C0 8.95431 8.95431 0 20 0H60C71.0457 0 80 8.95431 80 20V60C80 71.0457 71.0457 80 60 80H20C8.95431 80 0 71.0457 0 60V20Z" fill="#E6FAEF"/>
<path fill-rule="evenodd" clip-rule="evenodd" d="M49.8449 22.4732C44.6575 21.1178 40.0003 18.625 40.0003 18.625C40.0003 18.625 35.3431 21.1178 30.1557 22.4732C26.7051 23.3399 24.5658 23.7877 21.7228 24.0413C20.9466 24.0413 21.0008 24.7933 21.0008 24.7933C21.0008 24.7933 21.002 26.0809 21.002 42.2662C22.0004 58.451 40.0003 61.375 40.0003 61.375C40.0003 61.375 58.0002 58.451 58.998 42.2662C58.998 26.0809 58.9992 24.7933 58.9992 24.7933C58.9992 24.7933 59.0534 24.0413 58.2778 24.0413C55.4348 23.7877 53.2955 23.3399 49.8449 22.4732Z" fill="#0CD25F"/>
<path d="M39.4061 29.4437C39.6366 28.9319 40.3634 28.9319 40.5939 29.4437L42.8185 34.3833C42.9132 34.5936 43.1122 34.7382 43.3415 34.7633L48.7268 35.3526C49.2848 35.4136 49.5093 36.1048 49.0938 36.4822L45.0834 40.1243C44.9126 40.2794 44.8366 40.5133 44.8836 40.7392L45.9873 46.043C46.1017 46.5925 45.5137 47.0197 45.0264 46.7411L40.3232 44.0525C40.123 43.938 39.877 43.938 39.6768 44.0525L34.9736 46.7411C34.4863 47.0197 33.8983 46.5925 34.0127 46.043L35.1164 40.7392C35.1634 40.5133 35.0874 40.2794 34.9166 40.1243L30.9062 36.4822C30.4907 36.1048 30.7152 35.4136 31.2732 35.3526L36.6585 34.7633C36.8878 34.7382 37.0868 34.5936 37.1815 34.3833L39.4061 29.4437Z" fill="#F5F6F8"/>
</svg>
